<svg width="1024" height="1024" viewBox="0 0 1024 1024" fill="none" xmlns="http://www.w3.org/2000/svg">
<rect width="1024" height="1024" fill="#ECE9E2"/>
<g clip-path="url(#clip0_219_24215)">
<path d="M119 512.393C119 512.393 332.988 496.476 410.704 475.746C426.272 471.727 440.479 463.611 451.848 452.242C463.217 440.873 471.335 426.665 475.353 411.097C496.084 333.381 512 119.393 512 119.393C512 119.393 527.916 333.381 548.549 411.097C552.577 426.661 560.695 440.863 572.063 452.231C583.431 463.598 597.634 471.718 613.198 475.746C691.012 496.476 905 512.393 905 512.393C905 512.393 691.012 528.309 613.198 549.04C597.651 553.069 583.462 561.177 572.097 572.525C560.731 583.872 552.601 598.049 548.549 613.59C527.916 691.404 512 905.393 512 905.393C512 905.393 496.084 691.404 475.353 613.59C471.319 598.04 463.197 583.853 451.829 572.502C440.461 561.151 426.26 553.05 410.704 549.04C332.791 527.916 119 512.393 119 512.393Z" fill="#585449"/>
</g>
<defs>
<clipPath id="clip0_219_24215">
<rect width="786" height="786" fill="white" transform="translate(119 119)"/>
</clipPath>
</defs>
</svg>
