<svg width="24" height="24" viewBox="0 0 24 24" fill="none" xmlns="http://www.w3.org/2000/svg">
<g clip-path="url(#clip0_1462_19150)">
<path fill-rule="evenodd" clip-rule="evenodd" d="M0 11.9998C0 5.37261 5.37261 0 11.9998 0C18.627 0 23.9996 5.37261 23.9996 11.9998C23.9996 18.627 18.627 23.9996 11.9998 23.9996C5.37261 23.9996 0 18.6274 0 11.9998ZM16.4483 8.75156C16.917 9.22027 16.917 9.97987 16.4483 10.4486L12.029 14.8679C11.35 15.5469 10.2495 15.5469 9.57055 14.8679L7.55132 12.8487C7.0826 12.38 7.0826 11.6204 7.55132 11.1517C8.02004 10.6829 8.77964 10.6829 9.24835 11.1517L10.7999 12.7033L14.7513 8.75192C15.22 8.2832 15.9796 8.2832 16.4483 8.75192V8.75156Z" fill="#323232"/>
</g>
<defs>
<clipPath id="clip0_1462_19150">
<rect width="24" height="24" fill="white"/>
</clipPath>
</defs>
</svg>
